<?xml version="1.0" encoding="UTF-8" standalone="no"?>
<!DOCTYPE svg PUBLIC "-//W3C//DTD SVG 20010904//EN"
              "http://www.w3.org/TR/2001/REC-SVG-20010904/DTD/svg10.dtd">

<svg xmlns="http://www.w3.org/2000/svg"
     width="1.92333in" height="2.11in"
     viewBox="0 0 577 633">
  <path id="Selection"
        fill="black" fill-rule="evenodd" stroke="black" stroke-width="1"
        d="M 100.00,52.29
           C 79.19,55.73 61.38,68.68 54.09,89.00
             41.51,124.07 67.43,163.56 105.00,164.00
             113.81,164.10 121.94,163.05 130.00,159.22
             137.73,155.54 143.11,151.29 148.91,145.00
             171.46,120.51 166.36,82.36 140.00,62.76
             127.89,53.76 114.85,50.88 100.00,52.29 Z
           M 309.00,527.00
           C 309.00,527.00 292.00,577.00 292.00,577.00
             292.00,577.00 319.00,583.00 319.00,583.00
             319.00,583.00 319.00,613.00 319.00,613.00
             319.00,613.00 217.00,613.00 217.00,613.00
             217.00,613.00 217.00,581.00 217.00,581.00
             217.00,581.00 243.00,578.00 243.00,578.00
             243.00,578.00 263.00,527.00 263.00,527.00
             263.00,527.00 309.00,527.00 309.00,527.00 Z
           M 289.91,455.00
           C 289.91,455.00 331.11,455.00 337.00,455.00
             337.96,452.27 387.00,319.00 387.00,319.00
             387.00,319.00 443.00,471.00 443.00,471.00
             443.00,471.00 235.00,471.00 235.00,471.00
             235.00,471.00 235.00,193.00 235.00,193.00
             235.00,193.00 275.00,185.69 275.00,185.69
             275.00,185.69 275.00,155.00 275.00,155.00
             275.00,155.00 181.91,155.00 181.91,155.00
             186.24,146.79 189.88,138.08 192.10,129.00
             193.17,124.62 193.94,119.50 194.00,115.00
             194.00,115.00 194.00,103.00 194.00,103.00
             193.97,81.98 183.59,60.02 168.72,45.42
             127.05,4.54 52.39,15.52 27.86,70.00
             20.00,87.47 19.79,96.43 20.00,115.00
             20.48,156.08 60.04,194.81 101.00,195.00
             110.89,195.05 118.21,195.49 128.00,193.10
             128.00,193.10 148.00,186.80 148.00,186.80
             148.00,186.80 174.00,191.06 185.00,192.31
             185.02,200.88 185.00,472.04 185.00,472.04
             185.00,472.04 147.00,479.00 147.00,479.00
             147.00,479.00 147.00,511.00 147.00,511.00
             147.00,511.00 457.00,513.00 457.00,513.00
             457.00,513.00 479.70,573.83 480.96,577.04
             477.17,577.70 457.91,580.43 455.00,581.00
             454.91,582.96 455.00,613.00 455.00,613.00
             455.00,613.00 557.00,613.00 557.00,613.00
             557.00,613.00 557.00,584.09 557.00,581.97
             551.44,581.34 538.12,579.75 531.19,578.25
             530.44,575.94 409.41,260.26 408.28,257.00
             405.23,257.07 367.00,257.00 367.00,257.00
             367.00,257.00 289.91,455.00 289.91,455.00 Z" />
</svg>
